<mxfile host="Electron" modified="2023-09-06T07:57:19.537Z" agent="Mozilla/5.0 (X11; Linux x86_64) AppleWebKit/537.36 (KHTML, like Gecko) draw.io/21.6.5 Chrome/114.0.5735.243 Electron/25.3.1 Safari/537.36" etag="JIFrlJbM0f3EeGJCvnBE" version="21.6.5" type="device">
  <diagram name="Page-1" id="5xNaYsU_RXbuywhPb69W">
    <mxGraphModel dx="917" dy="1651" grid="1" gridSize="10" guides="1" tooltips="1" connect="1" arrows="1" fold="1" page="1" pageScale="1" pageWidth="827" pageHeight="1169" math="0" shadow="0">
      <root>
        <mxCell id="0" />
        <mxCell id="1" parent="0" />
        <mxCell id="a9vUjYVIS8MMW9jVBSYw-1" value="&lt;div&gt;Utilisateur&lt;/div&gt;" style="shape=umlActor;verticalLabelPosition=bottom;verticalAlign=top;html=1;" parent="1" vertex="1">
          <mxGeometry x="50" y="360" width="60" height="100" as="geometry" />
        </mxCell>
        <mxCell id="a9vUjYVIS8MMW9jVBSYw-3" value="" style="html=1;verticalAlign=bottom;endArrow=block;curved=0;rounded=0;exitX=0.5;exitY=0;exitDx=0;exitDy=0;exitPerimeter=0;" parent="1" source="a9vUjYVIS8MMW9jVBSYw-1" target="a9vUjYVIS8MMW9jVBSYw-2" edge="1">
          <mxGeometry width="80" relative="1" as="geometry">
            <mxPoint x="220" y="280" as="sourcePoint" />
            <mxPoint x="120" y="220" as="targetPoint" />
          </mxGeometry>
        </mxCell>
        <mxCell id="a9vUjYVIS8MMW9jVBSYw-4" value="Gérer profil" style="ellipse;whiteSpace=wrap;html=1;" parent="1" vertex="1">
          <mxGeometry x="180" y="160" width="100" height="50" as="geometry" />
        </mxCell>
        <mxCell id="a9vUjYVIS8MMW9jVBSYw-6" value="" style="html=1;verticalAlign=bottom;endArrow=block;curved=0;rounded=0;exitX=1;exitY=0.3333333333333333;exitDx=0;exitDy=0;exitPerimeter=0;entryX=0.07;entryY=0.153;entryDx=0;entryDy=0;entryPerimeter=0;" parent="1" source="a9vUjYVIS8MMW9jVBSYw-2" target="a9vUjYVIS8MMW9jVBSYw-4" edge="1">
          <mxGeometry width="80" relative="1" as="geometry">
            <mxPoint x="128" y="320" as="sourcePoint" />
            <mxPoint x="270" y="255" as="targetPoint" />
          </mxGeometry>
        </mxCell>
        <mxCell id="a9vUjYVIS8MMW9jVBSYw-7" value="Réserver un trajet" style="ellipse;whiteSpace=wrap;html=1;" parent="1" vertex="1">
          <mxGeometry x="260" y="120" width="112.5" height="40" as="geometry" />
        </mxCell>
        <mxCell id="a9vUjYVIS8MMW9jVBSYw-10" value="" style="html=1;verticalAlign=bottom;endArrow=block;curved=0;rounded=0;entryX=0.035;entryY=0.287;entryDx=0;entryDy=0;entryPerimeter=0;exitX=1;exitY=0.3333333333333333;exitDx=0;exitDy=0;exitPerimeter=0;" parent="1" source="a9vUjYVIS8MMW9jVBSYw-2" target="a9vUjYVIS8MMW9jVBSYw-7" edge="1">
          <mxGeometry width="80" relative="1" as="geometry">
            <mxPoint x="110" y="80" as="sourcePoint" />
            <mxPoint x="276" y="255" as="targetPoint" />
          </mxGeometry>
        </mxCell>
        <mxCell id="a9vUjYVIS8MMW9jVBSYw-11" value="&lt;div&gt;Proposer un trajet&lt;/div&gt;" style="ellipse;whiteSpace=wrap;html=1;" parent="1" vertex="1">
          <mxGeometry x="260" y="30" width="120" height="50" as="geometry" />
        </mxCell>
        <mxCell id="a9vUjYVIS8MMW9jVBSYw-12" value="" style="html=1;verticalAlign=bottom;endArrow=block;curved=0;rounded=0;entryX=0;entryY=0.667;entryDx=0;entryDy=0;entryPerimeter=0;exitX=1;exitY=0.3333333333333333;exitDx=0;exitDy=0;exitPerimeter=0;" parent="1" source="a9vUjYVIS8MMW9jVBSYw-2" target="a9vUjYVIS8MMW9jVBSYw-11" edge="1">
          <mxGeometry width="80" relative="1" as="geometry">
            <mxPoint x="130" y="190" as="sourcePoint" />
            <mxPoint x="273" y="209" as="targetPoint" />
          </mxGeometry>
        </mxCell>
        <mxCell id="a9vUjYVIS8MMW9jVBSYw-16" value="S&#39;identifier" style="ellipse;whiteSpace=wrap;html=1;" parent="1" vertex="1">
          <mxGeometry x="500" y="270" width="90" height="50" as="geometry" />
        </mxCell>
        <mxCell id="a9vUjYVIS8MMW9jVBSYw-17" value="&amp;lt;&amp;lt;Include&amp;gt;&amp;gt;" style="endArrow=open;endSize=12;dashed=1;html=1;rounded=0;exitX=0.961;exitY=0.831;exitDx=0;exitDy=0;entryX=0.041;entryY=0.276;entryDx=0;entryDy=0;entryPerimeter=0;exitPerimeter=0;" parent="1" source="a9vUjYVIS8MMW9jVBSYw-4" target="a9vUjYVIS8MMW9jVBSYw-16" edge="1">
          <mxGeometry x="0.0007" width="160" relative="1" as="geometry">
            <mxPoint x="270" y="290" as="sourcePoint" />
            <mxPoint x="410" y="250" as="targetPoint" />
            <mxPoint as="offset" />
          </mxGeometry>
        </mxCell>
        <mxCell id="a9vUjYVIS8MMW9jVBSYw-18" value="&amp;lt;&amp;lt;Include&amp;gt;&amp;gt;" style="endArrow=open;endSize=12;dashed=1;html=1;rounded=0;exitX=0.611;exitY=1.082;exitDx=0;exitDy=0;entryX=0.267;entryY=0.067;entryDx=0;entryDy=0;exitPerimeter=0;entryPerimeter=0;" parent="1" source="a9vUjYVIS8MMW9jVBSYw-7" target="a9vUjYVIS8MMW9jVBSYw-16" edge="1">
          <mxGeometry x="0.0009" width="160" relative="1" as="geometry">
            <mxPoint x="350" y="265" as="sourcePoint" />
            <mxPoint x="450" y="221" as="targetPoint" />
            <mxPoint as="offset" />
          </mxGeometry>
        </mxCell>
        <mxCell id="a9vUjYVIS8MMW9jVBSYw-19" value="&amp;lt;&amp;lt;Include&amp;gt;&amp;gt;" style="endArrow=open;endSize=12;dashed=1;html=1;rounded=0;exitX=1;exitY=1;exitDx=0;exitDy=0;entryX=0.615;entryY=0.014;entryDx=0;entryDy=0;entryPerimeter=0;" parent="1" source="a9vUjYVIS8MMW9jVBSYw-11" target="a9vUjYVIS8MMW9jVBSYw-16" edge="1">
          <mxGeometry x="-0.6871" y="3" width="160" relative="1" as="geometry">
            <mxPoint x="351" y="219" as="sourcePoint" />
            <mxPoint x="460" y="90" as="targetPoint" />
            <mxPoint as="offset" />
          </mxGeometry>
        </mxCell>
        <mxCell id="a9vUjYVIS8MMW9jVBSYw-28" value="Créer un compte" style="ellipse;whiteSpace=wrap;html=1;" parent="1" vertex="1">
          <mxGeometry x="180" y="230" width="90" height="50" as="geometry" />
        </mxCell>
        <mxCell id="a9vUjYVIS8MMW9jVBSYw-29" value="" style="html=1;verticalAlign=bottom;endArrow=block;curved=0;rounded=0;entryX=0.071;entryY=0.289;entryDx=0;entryDy=0;entryPerimeter=0;exitX=1;exitY=0.3333333333333333;exitDx=0;exitDy=0;exitPerimeter=0;" parent="1" source="a9vUjYVIS8MMW9jVBSYw-2" target="a9vUjYVIS8MMW9jVBSYw-28" edge="1">
          <mxGeometry width="80" relative="1" as="geometry">
            <mxPoint x="140" y="430" as="sourcePoint" />
            <mxPoint x="296" y="279" as="targetPoint" />
          </mxGeometry>
        </mxCell>
        <mxCell id="a9vUjYVIS8MMW9jVBSYw-2" value="&lt;div&gt;Chauffeur&lt;br&gt;&lt;/div&gt;" style="shape=umlActor;verticalLabelPosition=bottom;verticalAlign=top;html=1;" parent="1" vertex="1">
          <mxGeometry x="57.5" y="55" width="45" height="80" as="geometry" />
        </mxCell>
        <mxCell id="a9vUjYVIS8MMW9jVBSYw-37" value="&amp;lt;&amp;lt;Include&amp;gt;&amp;gt;" style="endArrow=open;endSize=12;dashed=1;html=1;rounded=0;entryX=0.029;entryY=0.632;entryDx=0;entryDy=0;entryPerimeter=0;exitX=0.941;exitY=0.839;exitDx=0;exitDy=0;exitPerimeter=0;" parent="1" source="a9vUjYVIS8MMW9jVBSYw-7" target="a9vUjYVIS8MMW9jVBSYw-38" edge="1">
          <mxGeometry width="160" relative="1" as="geometry">
            <mxPoint x="610" y="150" as="sourcePoint" />
            <mxPoint x="420" y="110" as="targetPoint" />
          </mxGeometry>
        </mxCell>
        <mxCell id="a9vUjYVIS8MMW9jVBSYw-38" value="Payer" style="ellipse;whiteSpace=wrap;html=1;" parent="1" vertex="1">
          <mxGeometry x="640" y="160" width="80" height="50" as="geometry" />
        </mxCell>
        <mxCell id="a9vUjYVIS8MMW9jVBSYw-39" value="&amp;lt;&amp;lt;Include&amp;gt;&amp;gt;" style="endArrow=open;endSize=12;dashed=1;html=1;rounded=0;exitX=0.533;exitY=1.044;exitDx=0;exitDy=0;exitPerimeter=0;entryX=0.96;entryY=0.29;entryDx=0;entryDy=0;entryPerimeter=0;" parent="1" source="a9vUjYVIS8MMW9jVBSYw-38" target="a9vUjYVIS8MMW9jVBSYw-16" edge="1">
          <mxGeometry width="160" relative="1" as="geometry">
            <mxPoint x="350" y="163" as="sourcePoint" />
            <mxPoint x="580" y="290" as="targetPoint" />
          </mxGeometry>
        </mxCell>
        <mxCell id="a9vUjYVIS8MMW9jVBSYw-41" value="Être payé" style="ellipse;whiteSpace=wrap;html=1;" parent="1" vertex="1">
          <mxGeometry x="590" y="-30" width="80" height="30" as="geometry" />
        </mxCell>
        <mxCell id="a9vUjYVIS8MMW9jVBSYw-43" value="&amp;lt;&amp;lt;extend&amp;gt;&amp;gt;" style="endArrow=open;endSize=12;dashed=1;html=1;rounded=0;exitX=0.463;exitY=1.089;exitDx=0;exitDy=0;exitPerimeter=0;entryX=0.5;entryY=0;entryDx=0;entryDy=0;" parent="1" target="a9vUjYVIS8MMW9jVBSYw-59" edge="1">
          <mxGeometry width="160" relative="1" as="geometry">
            <mxPoint x="630" y="-1.545430450278218e-13" as="sourcePoint" />
            <mxPoint x="632.96" y="77.33" as="targetPoint" />
          </mxGeometry>
        </mxCell>
        <mxCell id="a9vUjYVIS8MMW9jVBSYw-44" value="&amp;lt;&amp;lt;Include&amp;gt;&amp;gt;" style="endArrow=open;endSize=12;dashed=1;html=1;rounded=0;exitX=0.91;exitY=0.769;exitDx=0;exitDy=0;entryX=0.007;entryY=0.627;entryDx=0;entryDy=0;entryPerimeter=0;exitPerimeter=0;" parent="1" source="a9vUjYVIS8MMW9jVBSYw-28" target="a9vUjYVIS8MMW9jVBSYw-16" edge="1">
          <mxGeometry x="0.0007" width="160" relative="1" as="geometry">
            <mxPoint x="340.00000000000006" y="414.99999999999994" as="sourcePoint" />
            <mxPoint x="480" y="340" as="targetPoint" />
            <mxPoint as="offset" />
          </mxGeometry>
        </mxCell>
        <mxCell id="a9vUjYVIS8MMW9jVBSYw-48" value="&lt;div&gt;Commenter&lt;/div&gt;" style="ellipse;whiteSpace=wrap;html=1;" parent="1" vertex="1">
          <mxGeometry x="810" y="60" width="90" height="40" as="geometry" />
        </mxCell>
        <mxCell id="a9vUjYVIS8MMW9jVBSYw-56" value="&amp;lt;&amp;lt;extend&amp;gt;&amp;gt;" style="endArrow=open;endSize=12;dashed=1;html=1;rounded=0;entryX=0.995;entryY=0.6;entryDx=0;entryDy=0;entryPerimeter=0;exitX=-0.002;exitY=0.625;exitDx=0;exitDy=0;exitPerimeter=0;" parent="1" target="a9vUjYVIS8MMW9jVBSYw-59" edge="1" source="a9vUjYVIS8MMW9jVBSYw-48">
          <mxGeometry width="160" relative="1" as="geometry">
            <mxPoint x="799.2" y="50" as="sourcePoint" />
            <mxPoint x="670" y="99" as="targetPoint" />
          </mxGeometry>
        </mxCell>
        <mxCell id="a9vUjYVIS8MMW9jVBSYw-59" value="&lt;div&gt;Terminer le trajet&lt;/div&gt;" style="ellipse;whiteSpace=wrap;html=1;" parent="1" vertex="1">
          <mxGeometry x="575" y="55" width="110" height="50" as="geometry" />
        </mxCell>
        <mxCell id="a9vUjYVIS8MMW9jVBSYw-63" value="&amp;lt;&amp;lt;extend&amp;gt;&amp;gt;" style="endArrow=open;endSize=12;dashed=1;html=1;rounded=0;exitX=1;exitY=0.5;exitDx=0;exitDy=0;entryX=0;entryY=0.5;entryDx=0;entryDy=0;" parent="1" source="a9vUjYVIS8MMW9jVBSYw-11" target="a9vUjYVIS8MMW9jVBSYw-59" edge="1">
          <mxGeometry width="160" relative="1" as="geometry">
            <mxPoint x="297" y="13" as="sourcePoint" />
            <mxPoint x="300" y="90" as="targetPoint" />
          </mxGeometry>
        </mxCell>
        <mxCell id="a9vUjYVIS8MMW9jVBSYw-64" value="&amp;lt;&amp;lt;extend&amp;gt;&amp;gt;" style="endArrow=open;endSize=12;dashed=1;html=1;rounded=0;exitX=0.977;exitY=0.296;exitDx=0;exitDy=0;entryX=0.085;entryY=0.84;entryDx=0;entryDy=0;entryPerimeter=0;exitPerimeter=0;" parent="1" source="a9vUjYVIS8MMW9jVBSYw-7" target="a9vUjYVIS8MMW9jVBSYw-59" edge="1">
          <mxGeometry x="0.1452" y="-6" width="160" relative="1" as="geometry">
            <mxPoint x="340.005" y="160" as="sourcePoint" />
            <mxPoint x="580" y="140" as="targetPoint" />
            <mxPoint as="offset" />
          </mxGeometry>
        </mxCell>
        <mxCell id="91NleQndMPdicqr4mIcP-1" value="Rechercher des trajets" style="ellipse;whiteSpace=wrap;html=1;" parent="1" vertex="1">
          <mxGeometry x="175" y="330" width="110" height="45" as="geometry" />
        </mxCell>
        <mxCell id="91NleQndMPdicqr4mIcP-2" value="" style="html=1;verticalAlign=bottom;endArrow=block;curved=0;rounded=0;entryX=0.071;entryY=0.111;entryDx=0;entryDy=0;entryPerimeter=0;exitX=1;exitY=0.3333333333333333;exitDx=0;exitDy=0;exitPerimeter=0;" parent="1" source="a9vUjYVIS8MMW9jVBSYw-2" target="91NleQndMPdicqr4mIcP-1" edge="1">
          <mxGeometry width="80" relative="1" as="geometry">
            <mxPoint x="610" y="340" as="sourcePoint" />
            <mxPoint x="726" y="369" as="targetPoint" />
          </mxGeometry>
        </mxCell>
      </root>
    </mxGraphModel>
  </diagram>
</mxfile>
